<svg xmlns="http://www.w3.org/2000/svg" viewBox="0 0 46.64 56.78"><defs><style>.cls-1{fill:#fff;}</style></defs><title>apple</title><g id="Warstwa_2" data-name="Warstwa 2"><g id="Layer_1" data-name="Layer 1"><path class="cls-1" d="M23.36,13C22.18,8,27.48.12,34.64,0a6.65,6.65,0,0,1,0,2.89,12.64,12.64,0,0,1-6.12,8.91A7.76,7.76,0,0,1,23.36,13Z"/><path class="cls-1" d="M46.64,41.64c-.1.3-.16.58-.26.83A38.64,38.64,0,0,1,40.49,52.9,12.11,12.11,0,0,1,36.92,56a6.16,6.16,0,0,1-4.77.53c-1.36-.39-2.71-.84-4-1.33A10.45,10.45,0,0,0,21.24,55q-2.08.65-4.13,1.39c-2.33.84-4.35.14-6.21-1.25a20.7,20.7,0,0,1-5-5.62A37.46,37.46,0,0,1,.34,35.06,23.6,23.6,0,0,1,1.2,23.48a14.53,14.53,0,0,1,6.63-8.2,11.7,11.7,0,0,1,8.79-1.21c1.37.34,2.7.87,4,1.31.21.07.41.15.62.24a5.86,5.86,0,0,0,5-.09,22.81,22.81,0,0,1,3.92-1.4A13.73,13.73,0,0,1,42.89,16.7a7.69,7.69,0,0,1,2.2,2.55C40.9,22,38.71,25.85,39,30.9S42.18,39.39,46.64,41.64Z"/></g></g></svg>