<svg xmlns="http://www.w3.org/2000/svg" viewBox="0 0 50.27 49.67"><defs><style>.cls-1{fill:#4d4d4d;}</style></defs><title>Zasób 2</title><g id="Warstwa_2" data-name="Warstwa 2"><g id="Layer_1" data-name="Layer 1"><path class="cls-1" d="M22.95,26.22c.83-.26,26.36-.26,27.32,0V49.47l-.11.13a.18.18,0,0,1-.08,0,1.53,1.53,0,0,1-.37,0L23.26,46C23.09,39.4,23,32.8,22.95,26.22Z"/><path class="cls-1" d="M23,23.46c0-6.55,0-13,0-19.46.73-.34,26.4-4.13,27.3-4V23.46Z"/><path class="cls-1" d="M20.37,26.06V45.7L0,42.91V26.06C6.78,26,13.51,26,20.37,26.06Z"/><path class="cls-1" d="M0,7l20.33-2.8c.14,2.24.06,4.4.07,6.55s0,4.29,0,6.43,0,4.35,0,6.44l-.15.14s0,.06-.07.06a2.71,2.71,0,0,1-.46.07H.34a1.49,1.49,0,0,1-.34-.1Z"/></g></g></svg>